<?xml version="1.0" encoding="utf-8"?>
<svg id="master-artboard" viewBox="0 0 600 600" version="1.1" xmlns="http://www.w3.org/2000/svg" x="0px" y="0px" width="600px" height="600px" enable-background="new 0 0 1400 980">
<rect id="ee-background" x="0" y="0" width="600" height="600" style="fill: white; fill-opacity: 0; pointer-events: none;" transform="matrix(1.4941771030426025, 0, 0, 1.4941771030426025, 141.50163269042974, 95.4060516357422)"/><path d="M285.7,306.3c-29,0-52.6,23.5-52.6,52.6c0,29,23.5,52.6,52.6,52.6c29,0,52.6-23.5,52.6-52.6&#10;&#9;&#9;&#9;C338.3,329.9,314.7,306.3,285.7,306.3z" style="fill: rgb(61, 36, 255);" transform="matrix(1.721157890665622, 0, 0, 1.7478310544260567, -188.00658504218907, -315.4958415013307)"/><path d="M394.5,267.5h-52.3l-5.3-15.2c-1.9-5.4-7-9-12.7-9h-79c-5.7,0-10.8,3.6-12.7,9l-5.3,15.2H213v-4.3c0-3.2-2.6-5.7-5.7-5.7&#10;&#9;&#9;&#9;h-22.6c-3.2,0-5.7,2.6-5.7,5.7v4.3h-4.1c-9.8,0-17.9,8-17.9,17.9v146.1c0,9.8,8,17.9,17.9,17.9h219.6c9.8,0,17.9-8,17.9-17.9&#10;&#9;&#9;&#9;V285.4C412.4,275.5,404.3,267.5,394.5,267.5z M286.2,426.5c-37.6,0-68.1-30.5-68.1-68.1c0-37.6,30.5-68.1,68.1-68.1&#10;&#9;&#9;&#9;c37.6,0,68.1,30.5,68.1,68.1C354.3,396,323.8,426.5,286.2,426.5z M377.8,307.2c-5.6,0-10.1-4.5-10.1-10.1&#10;&#9;&#9;&#9;c0-5.6,4.5-10.1,10.1-10.1c5.6,0,10.1,4.5,10.1,10.1C387.9,302.6,383.4,307.2,377.8,307.2z" style="fill-opacity: 1; fill: rgb(74, 54, 255);" transform="matrix(2.201282501220703, 0, 0, 2.201282501220703, -326.58123779296875, -479.6426086425781)"/></svg>